<svg width="97" height="110" viewBox="0 0 97 110" fill="none" xmlns="http://www.w3.org/2000/svg">
<path d="M48.2177 98.7182C72.3996 98.7182 92.0028 79.1149 92.0028 54.9331C92.0028 30.7512 72.3996 11.1479 48.2177 11.1479C24.0359 11.1479 4.43262 30.7512 4.43262 54.9331C4.43262 79.1149 24.0359 98.7182 48.2177 98.7182Z" fill="url(#paint0_linear_53577_13691)"/>
<path d="M22.1624 30.6229L42.5776 30.3543L71.8572 29.2798L72.7974 29.6827L42.309 30.8915L20.8193 31.2944L22.1624 30.6229Z" fill="#A12C1F"/>
<path opacity="0.5" d="M86.497 44.054C85.5568 43.5168 84.0794 42.5766 81.9305 41.2335C81.9305 41.2335 71.32 32.7719 47.5471 33.0406C24.7143 33.3092 13.4323 42.4423 13.4323 42.4423C11.552 44.4569 9.80593 46.0687 8.73145 46.7402C12.4921 28.474 28.6093 14.9087 47.95 14.9087C66.2162 14.9087 81.6618 27.2652 86.497 44.054Z" fill="url(#paint1_linear_53577_13691)"/>
<path d="M48.2173 0C32.2344 8.73016 15.9829 17.1917 0 26.0562C0.805861 45.3968 0.805861 64.6032 0 83.9438C15.9829 92.8083 32.2344 101.27 48.2173 110C64.2002 101.27 80.4518 92.8083 96.4347 83.9438C95.6288 64.6032 95.6288 45.3968 96.4347 26.0562C80.4518 17.1917 64.2002 8.73016 48.2173 0ZM82.0635 74.9451C70.7814 81.2576 59.4994 87.5702 48.2173 93.8828C36.9353 87.5702 25.5189 81.2576 14.3712 74.9451C14.5055 61.6484 14.5055 48.3517 14.2369 34.9206C25.5189 28.6081 36.801 22.2955 48.083 15.9829C59.3651 22.2955 70.7814 28.6081 81.9292 34.9206C81.7949 48.3517 81.7949 61.6484 82.0635 74.9451Z" fill="url(#paint2_linear_53577_13691)"/>
<path d="M48.2176 12.0879C35.7268 19.072 23.236 25.9218 10.7451 32.906C11.148 47.6801 11.148 62.4542 10.7451 77.2283C23.236 84.2124 35.7268 91.0623 48.2176 98.0464C60.7085 91.0623 73.1993 84.2124 85.6902 77.2283C85.2872 62.4542 85.2872 47.6801 85.6902 32.906C73.1993 25.7875 60.7085 18.9377 48.2176 12.0879ZM82.0638 74.945C70.7818 81.2576 59.4997 87.5702 48.2176 93.8828C36.9356 87.5702 25.5192 81.2576 14.3715 74.945C14.5058 61.6483 14.5058 48.3516 14.2372 34.9206C25.5192 28.608 36.8013 22.2955 48.0833 15.9829C59.3654 22.2955 70.7817 28.608 81.9295 34.9206C81.7952 48.3516 81.7952 61.6483 82.0638 74.945Z" fill="#A12C1F"/>
<path opacity="0.5" d="M1.20898 26.862C1.07467 28.3394 7.92448 30.4884 11.1479 30.8913C12.894 31.1599 45.2627 13.1624 48.0832 10.8791C49.6949 9.67029 49.1577 1.61168 48.0832 1.34306C44.1882 0.402891 31.4288 9.53598 23.5045 13.6996C18.2664 16.3858 13.1626 19.2063 8.0588 22.0268C5.90983 23.5042 1.34329 25.7875 1.20898 26.862Z" fill="url(#paint3_radial_53577_13691)"/>
<path opacity="0.5" d="M48.2173 108.388C49.2917 108.926 64.3345 100.598 71.7215 96.7034C79.1086 92.8084 92.8082 85.8242 93.7484 84.6155C94.8229 83.2723 87.7044 77.3627 85.2868 78.4372C78.7056 81.6606 72.1245 84.4811 66.2148 87.9732C60.3052 91.331 48.8888 97.1063 48.2173 98.3151C47.2771 100.061 47.4114 107.985 48.2173 108.388Z" fill="#CC6727"/>
<path opacity="0.5" d="M46.7405 107.717C45.9346 108.12 33.0409 100.867 25.2509 96.8375C20.0128 94.1513 12.8944 90.3906 7.79057 87.4358C5.77592 86.3613 1.6123 84.0781 1.6123 83.2722C1.6123 82.1977 8.32781 77.0939 10.6111 77.7655C12.4914 78.3027 19.6099 83.0036 25.9224 86.4956C31.6978 89.7191 45.666 97.1061 46.4719 98.3149C47.5464 99.7923 47.2777 107.448 46.7405 107.717Z" fill="#CC6727"/>
<path opacity="0.5" d="M13.8342 35.1891C13.6999 34.1146 10.7451 32.3686 10.7451 33.1745C11.148 47.5456 10.8794 73.3332 11.148 76.6909C11.148 76.8252 13.5656 75.7508 13.8342 74.542C14.3715 72.1244 14.3715 58.8277 14.3715 52.3808C14.2372 45.9339 14.2372 38.8155 13.8342 35.1891Z" fill="url(#paint4_linear_53577_13691)"/>
<path opacity="0.5" d="M82.4657 34.9206C81.9284 47.8144 82.0627 71.1844 82.4657 75.0794C82.4657 75.4823 85.5548 77.2283 85.5548 76.5568C85.4205 69.304 85.2862 61.1111 85.2862 53.8584C85.2862 46.8742 85.4205 35.1892 85.1519 33.0403C85.1519 32.7717 82.6 33.8461 82.4657 34.9206Z" fill="url(#paint5_linear_53577_13691)"/>
<path opacity="0.5" d="M48.2184 12.491C48.7556 12.3567 48.6213 15.7144 47.9497 15.983C41.7715 19.3408 23.6396 29.1454 22.5651 29.6827C20.4162 30.4885 18.9387 28.7425 19.7446 28.2053C24.3112 25.6534 29.012 22.8329 33.7129 20.281C38.0108 17.7291 47.0096 12.8939 48.2184 12.491Z" fill="url(#paint6_linear_53577_13691)"/>
<path d="M0.53724 67.0208C0.40293 72.6618 0.26862 78.3028 0 83.8095C15.9829 92.674 32.2344 101.136 48.2173 109.866C64.2002 101.136 80.4518 92.674 96.4347 83.8095C96.3004 81.5262 96.3004 80.4518 96.1661 78.1685C96.1661 78.1685 95.8974 82.3321 94.0171 83.9438C91.4652 86.0928 72.1245 96.9719 48.083 108.254C48.083 108.254 43.2479 106.239 22.0269 95.2259C14.5055 91.3309 2.41758 83.5409 1.07448 82.1978C0.537239 81.5262 0.40293 71.7216 0.53724 67.0208Z" fill="#A12C1F"/>
<path d="M0 26.0562C15.9829 17.1917 32.2344 8.73016 48.2173 0C64.2002 8.73016 80.4518 17.1917 96.4347 26.0562C85.9585 20.4151 51.978 2.01465 47.2772 2.82051C44.188 3.35775 32.5031 9.2674 24.5788 13.431C17.0574 17.1917 7.25275 22.0269 0 26.0562Z" fill="url(#paint7_radial_53577_13691)"/>
<path d="M10.7451 77.0938L47.6804 98.4491C47.6804 98.4491 65.275 89.9875 85.6902 77.0938C85.6902 77.0938 59.7683 91.3306 47.6804 97.5089C47.6804 97.5089 39.0846 92.808 10.7451 77.0938Z" fill="url(#paint8_radial_53577_13691)"/>
<path d="M0.133789 30.0855C5.10326 30.6227 12.4903 30.3541 15.8481 29.9512L22.0263 30.6227L20.6832 31.2943L14.505 30.8913L0.2681 31.2943V30.0855H0.133789Z" fill="#A12C1F"/>
<path d="M96.3009 28.6082L72.528 29.6827C72.3937 29.5484 71.8564 29.2798 71.8564 29.2798L96.3009 28.3396V28.6082Z" fill="#A12C1F"/>
<path d="M0.537109 54.5301C3.89486 54.7987 14.5054 54.2615 14.5054 54.2615C14.5054 54.5301 14.5054 54.7987 14.5054 55.0673L0.537109 55.2016C0.537109 54.933 0.537109 54.5301 0.537109 54.5301Z" fill="#A12C1F"/>
<path d="M95.8979 53.9927H81.9297C81.9297 53.724 81.9297 53.3211 81.9297 53.3211C88.108 53.724 95.8979 53.0525 95.8979 53.0525C95.8979 53.0525 95.7636 53.724 95.8979 53.9927Z" fill="#A12C1F"/>
<path d="M14.2364 74.9451L15.4451 75.6166C13.9677 75.6166 10.61 76.9597 10.61 76.9597C10.61 76.9597 3.49154 77.094 0.133789 77.2283L0.2681 76.1539C3.49154 76.9597 10.7443 76.6911 10.7443 76.6911C10.7443 76.6911 13.0276 75.348 14.2364 74.9451Z" fill="#A12C1F"/>
<path d="M96.0307 74.0049V75.7509C92.1358 75.7509 89.0466 75.7509 85.5546 75.6166C85.5546 75.6166 83.137 75.0794 82.0625 74.9451V74.2735C83.0027 74.5421 85.5546 75.0794 85.5546 75.0794C90.927 74.9451 94.1504 74.8107 96.0307 74.0049Z" fill="#A12C1F"/>
<path d="M67.4234 99.5242C66.7519 99.9271 65.946 100.33 65.0059 100.599L31.4283 100.733C30.6225 100.33 29.8166 100.061 29.0107 99.6585C29.0107 99.6585 40.1585 100.196 46.6054 100.196C53.9924 100.196 67.4234 99.5242 67.4234 99.5242Z" fill="#A12C1F"/>
<path d="M68.902 11.1479C52.3819 10.8792 42.9802 10.8792 28.2061 10.6106C29.1462 10.2077 29.1462 9.93906 30.0864 9.67044C30.0864 9.67044 42.8459 10.342 48.4869 10.342C53.3221 10.342 65.8129 9.53613 65.8129 9.53613C67.4246 10.0734 67.5589 10.6106 68.902 11.1479Z" fill="#A12C1F"/>
<path d="M0.133789 31.2943L14.102 30.8914C14.102 30.8914 5.90913 32.3688 0.133789 31.2943Z" fill="url(#paint9_radial_53577_13691)"/>
<path d="M0.537109 55.2014L10.4761 55.0671C10.4761 55.0671 4.96934 56.1416 0.537109 55.2014Z" fill="url(#paint10_radial_53577_13691)"/>
<path d="M0.267578 77.0943L10.7438 76.8257C10.7438 76.8257 4.83412 77.9002 0.267578 77.0943Z" fill="url(#paint11_radial_53577_13691)"/>
<path d="M31.5625 100.733L65.4087 100.599C65.2743 100.599 49.1571 102.748 31.5625 100.733Z" fill="url(#paint12_radial_53577_13691)"/>
<path d="M85.8232 75.6167L95.6279 75.751C95.4936 75.751 89.7182 76.4226 85.8232 75.6167Z" fill="url(#paint13_radial_53577_13691)"/>
<path d="M85.6895 53.9929H95.7627C95.7627 53.9929 92.405 55.2017 85.6895 53.9929Z" fill="url(#paint14_radial_53577_13691)"/>
<path d="M96.0308 28.7427L80.0479 29.5485C80.0479 29.5485 87.8378 30.2201 96.0308 28.7427Z" fill="url(#paint15_radial_53577_13691)"/>
<path d="M28.2061 10.6108L68.2305 11.1481C68.3648 11.1481 52.9191 12.4912 28.2061 10.6108Z" fill="url(#paint16_radial_53577_13691)"/>
<path d="M81.9288 75.2136L13.4307 75.7199C13.4307 75.7199 44.1849 76.8589 48.9379 76.4792C48.9379 76.4792 78.5738 75.4667 81.789 75.5933L81.9288 75.2136Z" fill="#C85438"/>
<path d="M14.5049 54.5298H24.4438L31.5623 54.2612L48.2167 56.0072L64.3339 53.8582L81.9286 53.5896L82.0629 54.2612L63.3938 54.9327L48.351 56.4101L32.0995 54.7984L24.5781 55.2013L14.5049 55.3356V54.5298Z" fill="#C85438"/>
<path d="M72.0607 49.1927L63.7206 47.9967L61.3377 47.6976L55.8272 46.8006L48.6785 32L41.3809 46.8006L25.1475 49.1927L36.913 60.7043L34.0833 76.9999L48.6785 69.2259L63.1248 76.9999L60.4441 60.7043L72.0607 49.1927Z" fill="url(#paint17_linear_53577_13691)"/>
<path opacity="0.5" d="M25 49.1929L48.9779 55.4719L36.7655 60.7045L25 49.1929Z" fill="url(#paint18_linear_53577_13691)"/>
<path opacity="0.5" d="M72.0599 49.1929L48.9756 55.4719L60.2943 60.7045L72.0599 49.1929Z" fill="url(#paint19_linear_53577_13691)"/>
<path opacity="0.5" d="M48.5298 69.2256L48.9766 55.4714L33.9346 76.9996L48.5298 69.2256Z" fill="url(#paint20_linear_53577_13691)"/>
<path opacity="0.5" d="M63.1245 76.9996L48.9761 55.4714L48.5293 69.2256L63.1245 76.9996Z" fill="url(#paint21_linear_53577_13691)"/>
<path opacity="0.5" d="M48.5293 32L48.9761 55.4717L55.8269 46.8006L48.5293 32Z" fill="url(#paint22_radial_53577_13691)"/>
<path opacity="0.5" d="M72.0599 49.1921L48.9756 55.4711L55.8264 46.8L72.0599 49.1921Z" fill="url(#paint23_linear_53577_13691)"/>
<path opacity="0.5" d="M41.2335 46.8L48.9779 55.4711L25 49.1921L41.2335 46.8Z" fill="url(#paint24_linear_53577_13691)"/>
<path opacity="0.5" d="M34.084 76.9996L48.9771 55.4714L63.1255 76.9996L47.9346 74.1591L34.084 76.9996Z" fill="url(#paint25_linear_53577_13691)"/>
<path opacity="0.5" d="M25 49.1929L35.4252 68.6281L48.9779 55.4719L25 49.1929Z" fill="url(#paint26_linear_53577_13691)"/>
<path opacity="0.5" d="M72.0608 49.1929L48.9766 55.4719L61.3378 66.0865L72.0608 49.1929Z" fill="url(#paint27_linear_53577_13691)"/>
<path d="M36.837 60.9779L34.3881 76.8953L49.4893 55.672L36.837 60.9779Z" fill="url(#paint28_linear_53577_13691)"/>
<defs>
<linearGradient id="paint0_linear_53577_13691" x1="48.2631" y1="18.6981" x2="48.2631" y2="91.955" gradientUnits="userSpaceOnUse">
<stop stop-color="#E5552F"/>
<stop offset="0.189" stop-color="#E75A34"/>
<stop offset="0.514" stop-color="#ED6843"/>
<stop offset="0.664" stop-color="#F77E5B"/>
<stop offset="0.824" stop-color="#F77F5C"/>
<stop offset="1" stop-color="#F7A66C"/>
</linearGradient>
<linearGradient id="paint1_linear_53577_13691" x1="47.6009" y1="17.7002" x2="47.6009" y2="45.621" gradientUnits="userSpaceOnUse">
<stop stop-color="#BF4A48"/>
<stop offset="1" stop-color="#EA7052"/>
</linearGradient>
<linearGradient id="paint2_linear_53577_13691" x1="48.1932" y1="-1.81104" x2="48.1932" y2="104.381" gradientUnits="userSpaceOnUse">
<stop offset="0.0223464" stop-color="#CD6D22"/>
<stop offset="0.9541" stop-color="#C74D3E"/>
</linearGradient>
<radialGradient id="paint3_radial_53577_13691" cx="0" cy="0" r="1" gradientUnits="userSpaceOnUse" gradientTransform="translate(25.2134 16.1736) scale(19.9284)">
<stop offset="0.0223464" stop-color="#FFA41A"/>
<stop offset="1" stop-color="#FF8836"/>
</radialGradient>
<linearGradient id="paint4_linear_53577_13691" x1="10.738" y1="54.8569" x2="14.2833" y2="54.8569" gradientUnits="userSpaceOnUse">
<stop stop-color="#961F63"/>
<stop offset="1" stop-color="#EA7052"/>
</linearGradient>
<linearGradient id="paint5_linear_53577_13691" x1="82.1492" y1="54.8684" x2="85.6449" y2="54.8684" gradientUnits="userSpaceOnUse">
<stop stop-color="#961F63"/>
<stop offset="1" stop-color="#EA7052"/>
</linearGradient>
<linearGradient id="paint6_linear_53577_13691" x1="19.4388" y1="21.2131" x2="48.5286" y2="21.2131" gradientUnits="userSpaceOnUse">
<stop stop-color="#961F63"/>
<stop offset="1" stop-color="#EA7052"/>
</linearGradient>
<radialGradient id="paint7_radial_53577_13691" cx="0" cy="0" r="1" gradientUnits="userSpaceOnUse" gradientTransform="translate(48.1932 12.9984) scale(35.3259 35.3259)">
<stop offset="0.0223464" stop-color="#FFA41A"/>
<stop offset="1" stop-color="#FF8836"/>
</radialGradient>
<radialGradient id="paint8_radial_53577_13691" cx="0" cy="0" r="1" gradientUnits="userSpaceOnUse" gradientTransform="translate(48.1935 87.7784) scale(27.5486 27.5486)">
<stop offset="0.0223464" stop-color="#FFA41A"/>
<stop offset="1" stop-color="#FF8836"/>
</radialGradient>
<radialGradient id="paint9_radial_53577_13691" cx="0" cy="0" r="1" gradientUnits="userSpaceOnUse" gradientTransform="translate(7.1519 31.2912) scale(4.95564 4.95566)">
<stop offset="0.0223464" stop-color="#FFA41A"/>
<stop offset="1" stop-color="#FF8836"/>
</radialGradient>
<radialGradient id="paint10_radial_53577_13691" cx="0" cy="0" r="1" gradientUnits="userSpaceOnUse" gradientTransform="translate(5.52149 55.3401) scale(3.53665 3.53664)">
<stop offset="0.0223464" stop-color="#FFA41A"/>
<stop offset="1" stop-color="#FF8836"/>
</radialGradient>
<radialGradient id="paint11_radial_53577_13691" cx="0" cy="0" r="1" gradientUnits="userSpaceOnUse" gradientTransform="translate(5.51991 77.1605) scale(3.68601 3.68604)">
<stop offset="0.0223464" stop-color="#FFA41A"/>
<stop offset="1" stop-color="#FF8836"/>
</radialGradient>
<radialGradient id="paint12_radial_53577_13691" cx="0" cy="0" r="1" gradientUnits="userSpaceOnUse" gradientTransform="translate(48.4308 101.135) scale(11.9586 11.9586)">
<stop offset="0.0223464" stop-color="#FFA41A"/>
<stop offset="1" stop-color="#FF8836"/>
</radialGradient>
<radialGradient id="paint13_radial_53577_13691" cx="0" cy="0" r="1" gradientUnits="userSpaceOnUse" gradientTransform="translate(90.6761 75.8066) scale(3.45432 3.45432)">
<stop offset="0.0223464" stop-color="#FFA41A"/>
<stop offset="1" stop-color="#FF8836"/>
</radialGradient>
<radialGradient id="paint14_radial_53577_13691" cx="0" cy="0" r="1" gradientUnits="userSpaceOnUse" gradientTransform="translate(90.701 54.2816) scale(3.5799)">
<stop offset="0.0223464" stop-color="#FFA41A"/>
<stop offset="1" stop-color="#FF8836"/>
</radialGradient>
<radialGradient id="paint15_radial_53577_13691" cx="0" cy="0" r="1" gradientUnits="userSpaceOnUse" gradientTransform="translate(88.091 29.1621) scale(5.67111 5.67111)">
<stop offset="0.0223464" stop-color="#FFA41A"/>
<stop offset="1" stop-color="#FF8836"/>
</radialGradient>
<radialGradient id="paint16_radial_53577_13691" cx="0" cy="0" r="1" gradientUnits="userSpaceOnUse" gradientTransform="translate(48.2877 11.1549) scale(14.158 14.158)">
<stop offset="0.0223464" stop-color="#FFA41A"/>
<stop offset="1" stop-color="#FF8836"/>
</radialGradient>
<linearGradient id="paint17_linear_53577_13691" x1="64.0339" y1="53.5874" x2="30.3296" y2="57.363" gradientUnits="userSpaceOnUse">
<stop stop-color="#E67854"/>
<stop offset="1" stop-color="#C63231"/>
</linearGradient>
<linearGradient id="paint18_linear_53577_13691" x1="25.0092" y1="54.9608" x2="48.9511" y2="54.9608" gradientUnits="userSpaceOnUse">
<stop stop-color="#B43C3C"/>
<stop offset="1" stop-color="#EA7052"/>
</linearGradient>
<linearGradient id="paint19_linear_53577_13691" x1="48.9488" y1="54.9608" x2="72.0488" y2="54.9608" gradientUnits="userSpaceOnUse">
<stop stop-color="#B43C3C"/>
<stop offset="1" stop-color="#EA7052"/>
</linearGradient>
<linearGradient id="paint20_linear_53577_13691" x1="33.9922" y1="66.2263" x2="48.9498" y2="66.2263" gradientUnits="userSpaceOnUse">
<stop stop-color="#B43C3C"/>
<stop offset="1" stop-color="#EA7052"/>
</linearGradient>
<linearGradient id="paint21_linear_53577_13691" x1="48.5284" y1="66.2263" x2="63.0652" y2="66.2263" gradientUnits="userSpaceOnUse">
<stop stop-color="#B43C3C"/>
<stop offset="1" stop-color="#EA7052"/>
</linearGradient>
<radialGradient id="paint22_radial_53577_13691" cx="0" cy="0" r="1" gradientUnits="userSpaceOnUse" gradientTransform="translate(52.1626 43.7711) scale(8.64557 8.67871)">
<stop offset="0.0223464" stop-color="#FFA41A"/>
<stop offset="1" stop-color="#FF8836"/>
</radialGradient>
<linearGradient id="paint23_linear_53577_13691" x1="50.6009" y1="49.2598" x2="61.97" y2="49.2598" gradientUnits="userSpaceOnUse">
<stop offset="0.0223464" stop-color="#C17707"/>
<stop offset="1" stop-color="#DF695C"/>
</linearGradient>
<linearGradient id="paint24_linear_53577_13691" x1="24.9992" y1="49.1415" x2="46.2224" y2="50.774" gradientUnits="userSpaceOnUse">
<stop stop-color="#DF695C"/>
<stop offset="1" stop-color="#C17707"/>
</linearGradient>
<linearGradient id="paint25_linear_53577_13691" x1="48.5967" y1="74.8634" x2="48.5967" y2="64.7706" gradientUnits="userSpaceOnUse">
<stop stop-color="#A62B2B"/>
<stop offset="1" stop-color="#9E2D16"/>
</linearGradient>
<linearGradient id="paint26_linear_53577_13691" x1="25.0092" y1="58.9257" x2="48.9511" y2="58.9257" gradientUnits="userSpaceOnUse">
<stop stop-color="#B43C3C"/>
<stop offset="1" stop-color="#EA7052"/>
</linearGradient>
<linearGradient id="paint27_linear_53577_13691" x1="60.5123" y1="64.4102" x2="60.5123" y2="56.4901" gradientUnits="userSpaceOnUse">
<stop stop-color="#A62B2B"/>
<stop offset="1" stop-color="#9E2D16"/>
</linearGradient>
<linearGradient id="paint28_linear_53577_13691" x1="49.4827" y1="66.6745" x2="32.3666" y2="66.6745" gradientUnits="userSpaceOnUse">
<stop stop-color="#EA7052"/>
<stop offset="1" stop-color="#B43C3C"/>
</linearGradient>
</defs>
</svg>
